<?xml version="1.0" encoding="UTF-8" standalone="no"?>
<svg
   xmlns:dc="http://purl.org/dc/elements/1.1/"
   xmlns:cc="http://creativecommons.org/ns#"
   xmlns:rdf="http://www.w3.org/1999/02/22-rdf-syntax-ns#"
   xmlns:svg="http://www.w3.org/2000/svg"
   xmlns="http://www.w3.org/2000/svg"
   xmlns:sodipodi="http://sodipodi.sourceforge.net/DTD/sodipodi-0.dtd"
   xmlns:inkscape="http://www.inkscape.org/namespaces/inkscape"
   height="1200"
   width="1600"
   id="Layer_1"
   data-name="Layer 1"
   viewBox="0 0 1600 1200"
   version="1.1"
   sodipodi:docname="404.svg"
   inkscape:version="1.0 (4035a4fb49, 2020-05-01)">
  <metadata
     id="metadata438">
    <rdf:RDF>
      <cc:Work
         rdf:about="">
        <dc:format>image/svg+xml</dc:format>
        <dc:type
           rdf:resource="http://purl.org/dc/dcmitype/StillImage" />
        <dc:title>Untitled-5 [Recovered]</dc:title>
      </cc:Work>
    </rdf:RDF>
  </metadata>
  <sodipodi:namedview
     inkscape:document-rotation="0"
     pagecolor="#ffffff"
     bordercolor="#666666"
     borderopacity="1"
     objecttolerance="10"
     gridtolerance="10"
     guidetolerance="10"
     inkscape:pageopacity="0"
     inkscape:pageshadow="2"
     inkscape:window-width="1920"
     inkscape:window-height="1017"
     id="namedview436"
     showgrid="false"
     inkscape:zoom="0.53125"
     inkscape:cx="881.35776"
     inkscape:cy="597.08282"
     inkscape:window-x="-8"
     inkscape:window-y="-8"
     inkscape:window-maximized="1"
     inkscape:current-layer="Layer_1" />
  <defs
     id="defs227">
    <rect
       id="rect584"
       height="902.43463"
       width="998.2684"
       y="174.36421"
       x="-177.02626" />
    <rect
       id="rect578"
       height="553.7062"
       width="1092.7711"
       y="417.9417"
       x="-181.01934" />
    <style
       id="style225">.cls-1{fill:#232725;}.cls-2{fill:#1c1e1c;}.cls-3{fill:#f1f2f2;}.cls-4{fill:#202321;}.cls-5{fill:#3a99d5;opacity:0.08;}.cls-6{fill:#3091c1;}.cls-7{fill:#fff;}.cls-8{fill:#40a7db;}.cls-9{fill:#243247;}.cls-10{fill:#2e5174;}.cls-11{fill:#339bc4;}.cls-12{fill:#2a88ad;}.cls-13{fill:#262626;}.cls-14{fill:#294a66;}.cls-15{fill:#1c283a;}</style>
    <filter
       id="filter319"
       inkscape:label="Blur"
       style="color-interpolation-filters:sRGB;">
      <feGaussianBlur
         id="feGaussianBlur317"
         result="fbSourceGraphic"
         stdDeviation="11.7913 19.6455" />
      <feColorMatrix
         id="feColorMatrix321"
         values="0 0 0 -1 0 0 0 0 -1 0 0 0 0 -1 0 0 0 0 1 0"
         in="fbSourceGraphic"
         result="fbSourceGraphicAlpha" />
      <feGaussianBlur
         in="fbSourceGraphic"
         result="fbSourceGraphic"
         stdDeviation="11.7913 19.6455"
         id="feGaussianBlur323" />
      <feColorMatrix
         id="feColorMatrix353"
         values="0 0 0 -1 0 0 0 0 -1 0 0 0 0 -1 0 0 0 0 1 0"
         in="fbSourceGraphic"
         result="fbSourceGraphicAlpha" />
      <feGaussianBlur
         in="fbSourceGraphic"
         result="fbSourceGraphic"
         stdDeviation="20.8538 45.6248"
         id="feGaussianBlur355" />
      <feColorMatrix
         id="feColorMatrix365"
         values="0 0 0 -1 0 0 0 0 -1 0 0 0 0 -1 0 0 0 0 1 0"
         in="fbSourceGraphic"
         result="fbSourceGraphicAlpha" />
      <feGaussianBlur
         in="fbSourceGraphic"
         result="blur"
         stdDeviation="22.9684 48.0415"
         id="feGaussianBlur367" />
    </filter>
    <filter
       id="filter335"
       inkscape:label="Blur"
       style="color-interpolation-filters:sRGB;">
      <feGaussianBlur
         id="feGaussianBlur333"
         result="fbSourceGraphic"
         stdDeviation="26.8955 52.2706" />
      <feColorMatrix
         id="feColorMatrix337"
         values="0 0 0 -1 0 0 0 0 -1 0 0 0 0 -1 0 0 0 0 1 0"
         in="fbSourceGraphic"
         result="fbSourceGraphicAlpha" />
      <feGaussianBlur
         in="fbSourceGraphic"
         result="fbSourceGraphic"
         stdDeviation="26.8955 52.2706"
         id="feGaussianBlur339" />
      <feColorMatrix
         id="feColorMatrix341"
         values="0 0 0 -1 0 0 0 0 -1 0 0 0 0 -1 0 0 0 0 1 0"
         in="fbSourceGraphic"
         result="fbSourceGraphicAlpha" />
      <feGaussianBlur
         in="fbSourceGraphic"
         result="fbSourceGraphic"
         stdDeviation="26.8955 52.2706"
         id="feGaussianBlur343" />
      <feColorMatrix
         id="feColorMatrix345"
         values="0 0 0 -1 0 0 0 0 -1 0 0 0 0 -1 0 0 0 0 1 0"
         in="fbSourceGraphic"
         result="fbSourceGraphicAlpha" />
      <feGaussianBlur
         in="fbSourceGraphic"
         result="blur"
         stdDeviation="26.8955 52.2706"
         id="feGaussianBlur347" />
    </filter>
    <filter
       id="filter413"
       inkscape:label="Blur"
       style="color-interpolation-filters:sRGB;">
      <feGaussianBlur
         id="feGaussianBlur411"
         result="fbSourceGraphic"
         stdDeviation="16.9267 32.333" />
      <feColorMatrix
         id="feColorMatrix415"
         values="0 0 0 -1 0 0 0 0 -1 0 0 0 0 -1 0 0 0 0 1 0"
         in="fbSourceGraphic"
         result="fbSourceGraphicAlpha" />
      <feGaussianBlur
         in="fbSourceGraphic"
         result="blur"
         stdDeviation="16.9267 32.333"
         id="feGaussianBlur417" />
    </filter>
    <filter
       id="filter437"
       inkscape:label="Blur"
       style="color-interpolation-filters:sRGB;">
      <feGaussianBlur
         id="feGaussianBlur435"
         result="blur"
         stdDeviation="8.16628 21.7601" />
    </filter>
    <filter
       id="filter486"
       inkscape:label="Blur"
       style="color-interpolation-filters:sRGB;">
      <feGaussianBlur
         id="feGaussianBlur484"
         result="fbSourceGraphic"
         stdDeviation="2.72876 6.35378" />
      <feColorMatrix
         id="feColorMatrix516"
         values="0 0 0 -1 0 0 0 0 -1 0 0 0 0 -1 0 0 0 0 1 0"
         in="fbSourceGraphic"
         result="fbSourceGraphicAlpha" />
      <feGaussianBlur
         in="fbSourceGraphic"
         result="fbSourceGraphic"
         stdDeviation="2.72876 5.74961"
         id="feGaussianBlur518" />
      <feColorMatrix
         id="feColorMatrix520"
         values="0 0 0 -1 0 0 0 0 -1 0 0 0 0 -1 0 0 0 0 1 0"
         in="fbSourceGraphic"
         result="fbSourceGraphicAlpha" />
      <feGaussianBlur
         in="fbSourceGraphic"
         result="blur"
         stdDeviation="2.72876 5.74961"
         id="feGaussianBlur522" />
    </filter>
    <filter
       id="filter542"
       inkscape:label="Blur"
       style="color-interpolation-filters:sRGB;">
      <feGaussianBlur
         id="feGaussianBlur540"
         result="fbSourceGraphic"
         stdDeviation="3.03085 5.74961" />
      <feColorMatrix
         id="feColorMatrix544"
         values="0 0 0 -1 0 0 0 0 -1 0 0 0 0 -1 0 0 0 0 1 0"
         in="fbSourceGraphic"
         result="fbSourceGraphicAlpha" />
      <feGaussianBlur
         in="fbSourceGraphic"
         result="blur"
         stdDeviation="3.03085 5.74961"
         id="feGaussianBlur546" />
    </filter>
  </defs>
  <title
     id="title229">Untitled-5 [Recovered]</title>
  <rect
     y="0"
     x="0"
     style="fill:#000000;stroke-width:0.866025"
     class="cls-1"
     width="1600"
     height="1200"
     id="rect231" />
  <ellipse
     transform="matrix(1.1811607,0,0,1.1811607,-102.2925,-106.41328)"
     ry="397.97333"
     rx="388.65616"
     style="opacity:0.08;fill:#3a99d5;stroke-width:1.31118;filter:url(#filter335)"
     class="cls-5"
     cx="909.08972"
     cy="590.97491"
     id="circle283-8-5" />
  <circle
     transform="matrix(1.0380613,0,0,1.0380613,27.797726,-21.845096)"
     id="circle283-8"
     r="276.8501"
     cy="590.97491"
     cx="909.08972"
     class="cls-5"
     style="opacity:0.08;fill:#3a99d5;stroke-width:0.922988;filter:url(#filter319)" />
  <circle
     style="stroke-width:0.690792"
     class="cls-3"
     cx="1283.1857"
     cy="418.62378"
     r="12.012872"
     id="circle239" />
  <circle
     style="stroke-width:0.690792"
     class="cls-3"
     cx="1163.0294"
     cy="347.20282"
     r="9.7677984"
     id="circle241" />
  <circle
     style="stroke-width:0.690792"
     class="cls-3"
     cx="1361.7288"
     cy="131.9106"
     r="9.7677984"
     id="circle243" />
  <circle
     style="stroke-width:0.690792"
     class="cls-3"
     cx="1079.637"
     cy="502.11292"
     r="9.7677984"
     id="circle245" />
  <circle
     style="stroke-width:0.690792"
     class="cls-3"
     cx="1264.7761"
     cy="259.32721"
     r="4.9806099"
     id="circle247" />
  <circle
     style="stroke-width:0.690792"
     class="cls-3"
     cx="1213.4641"
     cy="529.84821"
     r="4.9806099"
     id="circle249" />
  <circle
     style="stroke-width:0.690792"
     class="cls-3"
     cx="1407.853"
     cy="379.90491"
     r="4.9806099"
     id="circle251" />
  <circle
     style="stroke-width:0.690792"
     class="cls-3"
     cx="1399.2595"
     cy="254.35344"
     r="4.9806099"
     id="circle253" />
  <circle
     style="stroke-width:0.690792"
     class="cls-3"
     cx="1522.5244"
     cy="173.35808"
     r="4.9806099"
     id="circle255" />
  <path
     style="stroke-width:0.690792"
     class="cls-6"
     d="m 1101.169,599.26588 -15.4669,-22.8514 -1.9342,-2.85297 -0.9671,-1.42994 -0.4836,-0.69079 -0.2832,-0.40066 -0.3108,-0.42829 -0.6217,-0.85659 -0.6149,-0.80131 c -0.4075,-0.53882 -0.8358,-1.05001 -1.2641,-1.5681 -0.8566,-1.03619 -1.7615,-2.02402 -2.6803,-2.99113 a 55.705461,55.705461 0 0 0 -12.5586,-9.77471 54.745261,54.745261 0 0 0 -22.3609,-6.90792 c -1.2987,-0.0967 -2.5905,-0.16579 -3.8822,-0.1796 -0.6494,0 -1.2918,0 -1.9412,0 h -0.9671 l -0.9256,0.0553 a 87.730575,87.730575 0 0 0 -28.4745,6.43127 86.459518,86.459518 0 0 0 -24.40567,15.19743 q -2.68027,2.37632 -5.15331,4.95297 l -1.21579,1.3056 c -0.39375,0.44211 -0.69079,0.92566 -1.05691,1.38158 l -2.07238,2.80462 -0.82204,1.11908 v 0 a 20.35073,20.35073 0 0 1 5.30528,0.6908 l 1.25033,-0.91876 c 0.45593,-0.34539 0.9533,-0.69079 1.38159,-1.04309 l 1.24342,-1.09836 q 2.52139,-2.16909 5.20167,-4.14475 a 78.591398,78.591398 0 0 1 23.40401,-11.63985 77.216722,77.216722 0 0 1 25.4972,-3.23981 h 0.8013 l 0.7529,0.0553 c 0.5043,0 1.0017,0.0829 1.4991,0.13816 0.9947,0.10362 1.9894,0.25559 2.9704,0.42829 a 41.696201,41.696201 0 0 1 5.8026,1.57501 40.653105,40.653105 0 0 1 18.9139,13.25629 c 0.5872,0.75987 1.1605,1.52665 1.6993,2.32106 0.2694,0.40066 0.5388,0.78751 0.7806,1.20198 l 0.38,0.6079 0.3315,0.57336 0.1658,0.28322 c 0.055,0.0898 0.1106,0.18651 0.1865,0.32467 l 0.4145,0.75297 0.8221,1.51283 1.651,3.02567 13.1803,24.17772 19.9155,36.56359 a 179.02564,179.02564 0 0 1 23.3902,-7.8474 z"
     id="path289" />
  <path
     style="stroke-width:0.690792"
     class="cls-7"
     d="m 1020.3394,893.04582 28.5159,1.0017 a 219.41624,219.41624 0 0 1 9.9267,-117.4001 233.81235,233.81235 0 0 0 -38.4426,116.3984 z"
     id="path291" />
  <path
     style="stroke-width:0.690792"
     class="cls-7"
     d="m 1087.961,805.09422 a 180.25525,180.25525 0 0 0 -30.2428,89.2642 l 23.3211,0.8151 a 168.4427,168.4427 0 0 1 6.9217,-90.0793 z"
     id="path293" />
  <path
     style="stroke-width:0.690792"
     class="cls-7"
     d="m 1109.1338,844.55232 a 106.74808,106.74808 0 0 0 -20.4267,50.8906 l 19.1073,0.6908 a 96.883568,96.883568 0 0 1 1.3194,-51.5814 z"
     id="path295" />
  <circle
     style="stroke-width:0.690792;filter:url(#filter413)"
     class="cls-5"
     cx="971.48859"
     cy="591.62311"
     r="207.20305"
     id="circle283" />
  <circle
     style="stroke-width:0.690792;filter:url(#filter437)"
     class="cls-5"
     cx="971.48859"
     cy="591.62311"
     r="153.53542"
     id="circle281" />
  <circle
     style="stroke-width:0.690792;filter:url(#filter486)"
     class="cls-5"
     cx="971.48859"
     cy="591.62311"
     r="105.9813"
     id="circle285" />
  <circle
     style="stroke-width:0.690792;filter:url(#filter542)"
     class="cls-5"
     cx="971.48859"
     cy="591.62311"
     r="59.974556"
     id="circle287" />
  <circle
     style="stroke-width:0.690792"
     class="cls-7"
     cx="971.47473"
     cy="590.98755"
     r="20.330008"
     id="circle423" />
  <path
     style="stroke-width:0.690792"
     class="cls-7"
     d="m 1129.9197,861.81512 a 74.349936,74.349936 0 0 0 -15.4599,34.5396 l 15.9918,0.5596 a 65.963722,65.963722 0 0 1 -0.5319,-35.0992 z"
     id="path297" />
  <path
     style="stroke-width:0.690792"
     class="cls-7"
     d="m 1149.3102,869.79382 a 67.849584,67.849584 0 0 0 -12.897,27.3277 l 11.8401,0.4145 a 61.397587,61.397587 0 0 1 1.0569,-27.7422 z"
     id="path299" />
  <path
     style="stroke-width:0.690792"
     class="cls-7"
     d="m 1166.1103,876.12842 a 62.385419,62.385419 0 0 0 -10.7211,21.6563 l 8.8698,0.3108 a 57.33573,57.33573 0 0 1 1.8513,-21.9671 z"
     id="path301" />
  <path
     style="stroke-width:0.690792"
     class="cls-7"
     d="m 1172.2307,898.37192 6.3691,0.221 a 53.826507,53.826507 0 0 1 2.1967,-16.4823 57.653495,57.653495 0 0 0 -8.5658,16.2613 z"
     id="path303" />
  <path
     style="stroke-width:0.690792"
     class="cls-7"
     d="m 1191.6282,899.05572 a 50.683404,50.683404 0 0 1 2.1276,-11.8609 53.557099,53.557099 0 0 0 -6.5556,11.7021 z"
     id="path305" />
  <path
     style="stroke-width:0.690792"
     class="cls-7"
     d="m 1132.6483,770.06422 -5.1118,-8.8422 a 73.299932,73.299932 0 0 0 -11.93,21.9672 67.255503,67.255503 0 0 1 17.0418,-13.125 z"
     id="path307" />
  <path
     style="stroke-width:0.690792"
     class="cls-7"
     d="m 1092.2232,700.43232 -13.4704,-23.1968 a 233.56366,233.56366 0 0 0 -73.1894,91.4333 219.78927,219.78927 0 0 1 86.6598,-68.2365 z"
     id="path309" />
  <path
     style="stroke-width:0.690792"
     class="cls-7"
     d="m 1108.1943,727.97422 -10.5,-18.0918 a 179.8684,179.8684 0 0 0 -52.5002,68.2088 168.96771,168.96771 0 0 1 63.0002,-50.117 z"
     id="path311" />
  <path
     style="stroke-width:0.690792"
     class="cls-7"
     d="m 1121.4023,750.68742 -7.5297,-12.9523 a 106.04347,106.04347 0 0 0 -23.9981,37.1301 97.802322,97.802322 0 0 1 31.5278,-24.1778 z"
     id="path313" />
  <path
     style="stroke-width:0.690792"
     class="cls-7"
     d="m 1142.2849,786.65702 -3.9652,-6.8319 a 67.075897,67.075897 0 0 0 -9.671,18.0158 62.261077,62.261077 0 0 1 13.6362,-11.1839 z"
     id="path315" />
  <path
     style="stroke-width:0.690792"
     class="cls-7"
     d="m 1150.7126,801.17742 -3.0395,-5.2362 a 61.78443,61.78443 0 0 0 -7.7024,14.6172 57.964351,57.964351 0 0 1 10.7419,-9.381 z"
     id="path317" />
  <path
     style="stroke-width:0.690792"
     class="cls-7"
     d="m 1158.1593,813.99852 -2.3003,-3.9582 a 57.252835,57.252835 0 0 0 -5.9961,11.6467 54.234075,54.234075 0 0 1 8.2964,-7.6885 z"
     id="path319" />
  <path
     style="stroke-width:0.690792"
     class="cls-7"
     d="m 1165.1777,826.09432 -1.5059,-2.5974 a 53.190979,53.190979 0 0 0 -3.903,8.0063 50.99426,50.99426 0 0 1 5.4089,-5.4089 z"
     id="path321" />
  <path
     style="stroke-width:0.690792"
     class="cls-7"
     d="m 1172.7972,839.20552 -1.0155,-1.7546 a 52.935386,52.935386 0 0 0 -2.4454,5.402 q 1.651,-1.9273 3.4609,-3.6474 z"
     id="path323" />
  <path
     style="stroke-width:0.690792"
     class="cls-7"
     d="m 1179.9883,851.59832 c -0.3868,0.8635 -0.7599,1.7339 -1.0983,2.6112 0.5181,-0.601 1.05,-1.1881 1.5957,-1.7615 z"
     id="path325" />
  <path
     style="stroke-width:0.690792"
     class="cls-8"
     d="m 1462.3841,711.89262 a 54.468944,54.468944 0 0 0 -48.5696,-54.1512 l -231.0147,-25.1725 v 0.2556 q -4.7457,-0.2487 -9.5605,-0.2556 a 179.6059,179.6059 0 0 0 -102.0438,31.6176 l 136.6939,235.4357 -196.5372,-6.9079 c 29.4416,59.6499 90.8668,100.6898 161.8871,100.6898 88.297,0 161.7696,-63.4285 177.3608,-147.2009 a 54.572563,54.572563 0 0 1 22.7961,-35.0507 l 65.2937,-44.6805 a 54.468944,54.468944 0 0 0 23.708,-44.9567 z"
     id="path327" />
  <path
     style="stroke-width:0.690792"
     class="cls-6"
     d="m 1411.9355,674.96972 -226.11,-24.6405 -3.9444,-0.2072 c -2.9082,-0.152 -5.8234,-0.228 -8.6556,-0.228 a 162.21176,162.21176 0 0 0 -78.6053,20.1435 c 0,0 -5.7681,3.4125 -14.7484,9.1668 l 127.9762,220.4179 -177.1605,-6.2171 c 7.1704,10.9836 12.2615,17.7671 12.2615,17.7671 a 162.98545,162.98545 0 0 0 130.2488,64.9345 c 78.55,0 145.9782,-55.9542 160.3259,-133.0466 a 71.400254,71.400254 0 0 1 30.0495,-46.1794 l 65.2936,-44.6804 a 37.123158,37.123158 0 0 0 16.1715,-30.6574 v -9.6711 a 37.088619,37.088619 0 0 0 -33.1028,-36.9021 z"
     id="path329" />
  <path
     style="stroke-width:0.690792"
     class="cls-9"
     d="m 1554.9018,765.15952 h -114.3882 c -0.6079,0.4491 -1.2158,0.8981 -1.8444,1.3264 l -20.3853,13.947 h 136.611 a 7.6367048,7.6367048 0 0 0 0,-15.2734 z"
     id="path331" />
  <path
     style="stroke-width:0.690792"
     class="cls-10"
     d="m 1554.9018,749.89302 h -100.4826 a 54.427496,54.427496 0 0 1 -13.9056,15.2734 h 114.3882 a 7.6367048,7.6367048 0 1 0 0,-15.2734 z"
     id="path333" />
  <path
     style="stroke-width:0.690792"
     class="cls-9"
     d="m 1554.9018,734.61962 h -94.1135 a 54.489668,54.489668 0 0 1 -6.3691,15.2734 h 100.4826 a 7.6367048,7.6367048 0 1 0 0,-15.2734 z"
     id="path335" />
  <path
     style="stroke-width:0.690792"
     class="cls-10"
     d="m 1554.9018,719.34622 h -92.5177 v 2.1898 a 54.441312,54.441312 0 0 1 -1.5958,13.0836 h 94.1135 a 7.6367048,7.6367048 0 1 0 0,-15.2734 z"
     id="path337" />
  <path
     style="stroke-width:0.690792"
     class="cls-9"
     d="m 1554.9018,704.07282 h -93.0773 a 54.765984,54.765984 0 0 1 0.5596,7.8198 v 7.4536 h 92.5177 a 7.6367048,7.6367048 0 1 0 0,-15.2734 z"
     id="path339" />
  <path
     style="stroke-width:0.690792"
     class="cls-10"
     d="m 1554.9018,688.79942 h -97.6641 a 54.158087,54.158087 0 0 1 4.5799,15.2734 h 93.0773 a 7.6367048,7.6367048 0 1 0 0,-15.2734 z"
     id="path341" />
  <path
     style="stroke-width:0.690792"
     class="cls-9"
     d="m 1554.9018,673.52602 h -108.33 a 54.572563,54.572563 0 0 1 10.6659,15.2734 h 97.6641 a 7.6367048,7.6367048 0 1 0 0,-15.2734 z"
     id="path343" />
  <path
     style="stroke-width:0.690792"
     class="cls-10"
     d="m 1554.9018,658.25952 h -136.7284 v 0.152 a 54.296246,54.296246 0 0 1 28.3984,15.1214 h 108.33 a 7.6367048,7.6367048 0 1 0 0,-15.2734 z"
     id="path345" />
  <path
     style="stroke-width:0.690792"
     class="cls-10"
     d="m 1554.9018,658.25952 h -136.7284 v 0.152 a 54.296246,54.296246 0 0 1 28.3984,15.1214 h 108.33 a 7.6367048,7.6367048 0 1 0 0,-15.2734 z"
     id="path347" />
  <path
     style="stroke-width:0.690792"
     class="cls-10"
     d="m 1269.6738,642.03282 50.2897,-50.28967 a 7.6332509,7.6332509 0 0 0 0,-10.79708 v 0 a 7.6332509,7.6332509 0 0 0 -10.7971,0 l -59.042,58.95905 z"
     id="path349" />
  <path
     style="stroke-width:0.690792"
     class="cls-9"
     d="m 1289.1818,644.16042 41.6133,-41.61328 a 7.6346956,7.6346956 0 0 0 -10.7971,-10.79708 l -50.2896,50.28966 z"
     id="path351" />
  <path
     style="stroke-width:0.690792"
     class="cls-10"
     d="m 1308.6276,646.28122 32.9369,-32.93701 a 7.634687,7.634687 0 1 0 -10.797,-10.79707 l -41.5857,41.61328 z"
     id="path353" />
  <path
     style="stroke-width:0.690792"
     class="cls-9"
     d="m 1328.101,648.40192 24.2606,-24.26063 a 7.6332509,7.6332509 0 0 0 0,-10.79708 v 0 a 7.6332509,7.6332509 0 0 0 -10.7971,0 l -32.9369,32.93701 z"
     id="path355" />
  <path
     style="stroke-width:0.690792"
     class="cls-10"
     d="m 1347.5813,650.52262 15.5843,-15.5842 a 7.6347132,7.6347132 0 0 0 -10.7971,-10.79713 l -24.2606,24.26063 z"
     id="path357" />
  <path
     style="stroke-width:0.690792"
     class="cls-9"
     d="m 1367.0548,652.65032 6.9079,-6.908 a 7.634687,7.634687 0 0 0 -10.7971,-10.797 l -15.5843,15.5842 z"
     id="path359" />
  <path
     style="stroke-width:0.690792"
     class="cls-10"
     d="m 1386.1068,654.72262 a 7.6401588,7.6401588 0 0 0 -1.347,-8.9803 v 0 a 7.6332509,7.6332509 0 0 0 -10.7971,0 l -6.9079,6.908 z"
     id="path361" />
  <path
     style="stroke-width:0.690792"
     class="cls-10"
     d="m 1389.4986,760.28952 a 7.6332509,7.6332509 0 0 0 -7.6332,-7.6333 h -88.7875 a 38.200794,38.200794 0 0 0 -26.0843,15.2734 h 114.8648 a 7.6332509,7.6332509 0 0 0 7.6402,-7.6401 z"
     id="path363" />
  <path
     style="stroke-width:0.690792"
     class="cls-9"
     d="m 1389.4986,775.56292 a 7.6332509,7.6332509 0 0 0 -7.6332,-7.6333 h -114.8718 a 38.041912,38.041912 0 0 0 -6.7214,15.2734 h 121.5793 a 7.6332509,7.6332509 0 0 0 7.6471,-7.6401 z"
     id="path365" />
  <path
     style="stroke-width:0.690792"
     class="cls-10"
     d="m 1389.4986,790.83632 a 7.6332509,7.6332509 0 0 0 -7.6332,-7.6333 H 1260.286 c -0.1727,0.8842 -0.3109,1.7823 -0.4214,2.6872 v 9.4155 c 0.1312,1.0707 0.297,2.1276 0.5181,3.1707 h 121.4896 a 7.6332509,7.6332509 0 0 0 7.6263,-7.6401 z"
     id="path367" />
  <path
     style="stroke-width:0.690792"
     class="cls-9"
     d="m 1389.4986,806.12352 a 7.6332509,7.6332509 0 0 0 -7.6332,-7.6333 h -121.4965 a 38.062635,38.062635 0 0 0 6.9977,15.2735 h 114.4988 a 7.6332509,7.6332509 0 0 0 7.6332,-7.6402 z"
     id="path369" />
  <path
     style="stroke-width:0.690792"
     class="cls-10"
     d="m 1389.4986,821.37622 a 7.6332509,7.6332509 0 0 0 -7.6332,-7.6333 h -114.5057 a 38.166254,38.166254 0 0 0 30.3948,15.0869 h 85.7342 a 7.6332509,7.6332509 0 0 0 6.0099,-7.4536 z"
     id="path371" />
  <path
     style="stroke-width:0.690792"
     class="cls-11"
     d="m 1297.7891,828.82982 a 38.152438,38.152438 0 0 1 -12.379,-2.0723 38.076451,38.076451 0 0 0 25.3244,9.5951 h 42.6909 a 54.468944,54.468944 0 0 1 3.6336,-7.5435 z"
     id="path373" />
  <path
     style="stroke-width:0.690792"
     class="cls-12"
     d="m 1297.7891,828.82982 a 38.152438,38.152438 0 0 1 -12.379,-2.0723 38.076451,38.076451 0 0 0 25.3244,9.5951 h 24.385 a 72.312099,72.312099 0 0 1 2.6042,-7.5435 z"
     id="path375" />
  <circle
     style="stroke-width:0.690792"
     class="cls-13"
     cx="1180.686"
     cy="742.19769"
     r="44.210682"
     id="circle377" />
  <path
     style="stroke-width:0.690792"
     class="cls-12"
     d="m 1216.9595,716.93542 a 44.210684,44.210684 0 0 1 -56.417,64.6166 44.210684,44.210684 0 1 0 56.417,-64.6166 z"
     id="path379" />
  <circle
     style="stroke-width:0.690792"
     class="cls-7"
     cx="1180.686"
     cy="742.19769"
     r="35.25111"
     id="circle381" />
  <path
     style="stroke-width:0.690792"
     class="cls-13"
     d="m 1203.6825,726.08832 a 9.6020079,9.6020079 0 1 1 -6.9079,-6.9079 28.094508,28.094508 0 1 0 6.9079,6.9079 z"
     id="path383" />
  <circle
     style="stroke-width:0.690792"
     class="cls-10"
     cx="1376.0558"
     cy="690.42279"
     r="11.349711"
     id="circle385" />
  <circle
     style="stroke-width:0.690792"
     class="cls-10"
     cx="1334.5323"
     cy="681.35956"
     r="6.8733797"
     id="circle387" />
  <circle
     style="stroke-width:0.690792"
     class="cls-10"
     cx="1302.5693"
     cy="675.92999"
     r="4.7802801"
     id="circle389" />
  <polygon
     transform="matrix(0.69079193,0,0,0.69079193,538.98176,49.706348)"
     class="cls-14"
     points="1035.74,848.11 1029.46,854.38 1057.76,857.47 1064.04,851.19 "
     id="polygon391" />
  <path
     style="stroke-width:0.690792"
     class="cls-14"
     d="m 1418.1734,658.41152 a 54.296246,54.296246 0 0 1 28.3984,15.1214 h 6.5142 a 59.138697,59.138697 0 0 0 -19.957,-15.2734 h -14.9556 z"
     id="path393" />
  <polygon
     transform="matrix(0.69079193,0,0,0.69079193,538.98176,49.706348)"
     class="cls-15"
     points="1064.04,851.19 1057.76,857.47 1085.96,860.54 1092.23,854.26 "
     id="polygon395" />
  <polygon
     transform="matrix(0.69079193,0,0,0.69079193,538.98176,49.706348)"
     class="cls-14"
     points="1120.43,857.33 1092.23,854.26 1085.96,860.54 1114.15,863.61 "
     id="polygon397" />
  <polygon
     transform="matrix(0.69079193,0,0,0.69079193,538.98176,49.706348)"
     class="cls-15"
     points="1120.43,857.33 1114.15,863.61 1142.34,866.68 1148.62,860.41 "
     id="polygon399" />
  <polygon
     transform="matrix(0.69079193,0,0,0.69079193,538.98176,49.706348)"
     class="cls-14"
     points="1148.62,860.41 1142.34,866.68 1170.54,869.75 1176.81,863.48 "
     id="polygon401" />
  <polygon
     transform="matrix(0.69079193,0,0,0.69079193,538.98176,49.706348)"
     class="cls-15"
     points="1205.01,866.55 1176.81,863.48 1170.54,869.75 1198.73,872.83 "
     id="polygon403" />
  <path
     style="stroke-width:0.690792"
     class="cls-14"
     d="m 1386.9081,650.00452 -15.5221,-1.6924 -4.3381,4.3382 19.052,2.0723 a 7.6470667,7.6470667 0 0 0 0.8082,-4.7181 z"
     id="path405" />
  <path
     style="stroke-width:0.690792"
     class="cls-15"
     d="m 1440.5136,765.15952 c -0.6079,0.4491 -1.2158,0.8981 -1.8444,1.3264 l -20.3853,13.947 h 8.4622 l 14.6172,-10.0026 a 59.339027,59.339027 0 0 0 6.6247,-5.2708 z"
     id="path407" />
  <path
     style="stroke-width:0.690792"
     class="cls-14"
     d="m 1454.4192,749.89302 a 54.427496,54.427496 0 0 1 -13.9056,15.2734 h 7.4813 a 59.193961,59.193961 0 0 0 11.9369,-15.2734 z"
     id="path409" />
  <path
     style="stroke-width:0.690792"
     class="cls-15"
     d="m 1460.7883,734.61962 a 54.489668,54.489668 0 0 1 -6.3691,15.2734 h 5.5264 a 59.207777,59.207777 0 0 0 5.7612,-15.2734 z"
     id="path411" />
  <path
     style="stroke-width:0.690792"
     class="cls-14"
     d="m 1462.3841,719.34622 v 2.1898 a 54.441312,54.441312 0 0 1 -1.5958,13.0836 h 4.9116 a 59.269948,59.269948 0 0 0 1.4645,-13.0836 v -2.1898 z"
     id="path413" />
  <path
     style="stroke-width:0.690792"
     class="cls-15"
     d="m 1462.3841,711.89262 v 7.4536 h 4.7803 v -7.4536 a 59.891661,59.891661 0 0 0 -0.5181,-7.8198 h -4.8356 a 54.765984,54.765984 0 0 1 0.5734,7.8198 z"
     id="path415" />
  <path
     style="stroke-width:0.690792"
     class="cls-14"
     d="m 1462.4946,688.79942 h -5.25 a 54.158087,54.158087 0 0 1 4.5799,15.2734 h 4.8356 a 58.993631,58.993631 0 0 0 -4.1655,-15.2734 z"
     id="path417" />
  <path
     style="stroke-width:0.690792"
     class="cls-15"
     d="m 1457.2377,688.79942 h 5.25 a 59.152513,59.152513 0 0 0 -9.4086,-15.2734 h -6.5142 a 54.572563,54.572563 0 0 1 10.6728,15.2734 z"
     id="path419" />
  <path
     style="stroke-width:0.690792"
     class="cls-12"
     d="m 1104.2499,646.23282 a 179.02564,179.02564 0 0 1 23.3902,-7.8474 l -2.8668,-4.2069 a 183.37763,183.37763 0 0 0 -22.7961,7.8197 z"
     id="path421" />
  <path
     style="stroke-width:0.690792"
     class="cls-8"
     d="m 988.09323,590.59644 a 20.330007,20.330007 0 0 0 -34.73993,0 3.3503409,3.3503409 0 0 0 0.89803,1.94803 c 1.75462,1.75461 5.62996,1.01546 10.29971,-1.56119 1.47139,5.12568 3.69574,8.38621 6.17568,8.38621 2.47994,0 4.70429,-3.26053 6.17568,-8.38621 4.66975,2.58356 8.5451,3.32271 10.29971,1.56119 a 3.3503409,3.3503409 0 0 0 0.89112,-1.94803 z"
     id="path425" />
  <text
     id="text570"
     y="337.94962"
     x="76.781868"
     style="font-style:normal;font-variant:normal;font-weight:normal;font-stretch:normal;font-size:266.667px;line-height:1.25;font-family:Impact;-inkscape-font-specification:Impact;fill:#000000;fill-opacity:1;stroke:none;"
     xml:space="preserve"><tspan
       style="font-style:normal;font-variant:normal;font-weight:normal;font-stretch:normal;font-size:266.667px;font-family:Impact;-inkscape-font-specification:Impact;fill:#ffffff;"
       y="337.94962"
       x="76.781868"
       id="tspan568"
       sodipodi:role="line">404</tspan></text>
  <text
     id="text574"
     y="339.25171"
     x="540.59387"
     style="font-style:normal;font-variant:normal;font-weight:normal;font-stretch:normal;font-size:128px;line-height:1.25;font-family:Impact;-inkscape-font-specification:Impact;fill:#ffffff;fill-opacity:1;stroke:none;"
     xml:space="preserve"><tspan
       style="font-style:normal;font-variant:normal;font-weight:normal;font-stretch:normal;font-size:128px;font-family:Impact;-inkscape-font-specification:Impact;"
       y="339.25171"
       x="540.59387"
       id="tspan572"
       sodipodi:role="line">Error</tspan></text>
  <text
     style="fill:black;fill-opacity:1;line-height:1.25;stroke:none;font-family:sans-serif;font-style:normal;font-weight:normal;font-size:40px;white-space:pre;shape-inside:url(#rect578);"
     id="text576"
     xml:space="preserve" />
  <text
     style="fill:black;fill-opacity:1;line-height:1.25;stroke:none;font-family:sans-serif;font-style:normal;font-weight:normal;font-size:40px;white-space:pre;shape-inside:url(#rect584);"
     id="text582"
     xml:space="preserve" />
</svg>
