<svg id="Layer_1" data-name="Layer 1" xmlns="http://www.w3.org/2000/svg" viewBox="0 0 1600 1600"><defs><style>.cls-1{fill:#232725;}.cls-2{fill:#1c1e1c;}.cls-3{fill:#f1f2f2;}.cls-4{fill:#202321;}.cls-5{fill:#3a99d5;opacity:0.08;}.cls-6{fill:#3091c1;}.cls-7{fill:#fff;}.cls-8{fill:#40a7db;}.cls-9{fill:#243247;}.cls-10{fill:#2e5174;}.cls-11{fill:#339bc4;}.cls-12{fill:#2a88ad;}.cls-13{fill:#262626;}.cls-14{fill:#294a66;}.cls-15{fill:#1c283a;}</style></defs><title>Untitled-5 [Recovered]</title><rect class="cls-1" width="1600" height="1600"/><path class="cls-2" d="M437.57,973a5.64,5.64,0,0,0-3.13-3.6c-7.4-3.31-21.09-8.22-35.64-7.34-4.33-4.13-13.93-5.26-24-2.34l2.5,8.64.72-.38c-15,8.1-24.87,22.38-28.45,28.25-2.89-5.46-10.51-8.07-18.16-5.86l3.54,12.27,3.54,12.27c7.65-2.21,12.71-8.47,12.24-14.64,7.41,3.68,29,12.89,49.65,6.92,18.31-5.29,30.89-21.05,36.51-29.49A5.64,5.64,0,0,0,437.57,973Zm-13.43.68A2.69,2.69,0,1,1,426,970.3,2.69,2.69,0,0,1,424.14,973.63Z"/><path class="cls-2" d="M224,923.36c-4.35-3-12.52-7.69-21.92-8.8-2.29-3.14-8.29-5-15.09-4.27l.6,5.81.5-.16c-10.54,3.43-18.47,11.42-21.43,14.75-1.21-3.82-5.78-6.37-10.92-5.84l.85,8.24.85,8.24c5.14-.53,9.1-3.94,9.51-7.93,4.31,3.21,17,11.58,30.91,10.16,12.3-1.26,22.16-9.88,26.72-14.61a3.68,3.68,0,0,0-.57-5.59Zm-7.07,1.54a1.74,1.74,0,1,1,1.56-1.91A1.74,1.74,0,0,1,216.88,924.9Z"/><path class="cls-2" d="M112.49,748.9A29,29,0,0,0,101,742.14c-1-1.94-4.21-3.47-8.06-3.65l-.15,3.29.29,0c-6.17,1-11.26,4.82-13.2,6.43-.36-2.24-2.69-4-5.6-4.17l-.22,4.67-.22,4.67c2.91.14,5.41-1.44,6-3.63,2.13,2.15,8.53,7.89,16.4,8.26,7,.33,13.19-3.65,16.14-5.91a2.07,2.07,0,0,0,.15-3.17Zm-4.08.27a1,1,0,1,1,1-.94A1,1,0,0,1,108.41,749.16Z"/><circle class="cls-3" cx="1077.32" cy="534.05" r="17.39"/><circle class="cls-3" cx="903.38" cy="430.66" r="14.14"/><circle class="cls-3" cx="1191.02" cy="119" r="14.14"/><circle class="cls-3" cx="782.66" cy="654.91" r="14.14"/><circle class="cls-3" cx="1050.67" cy="303.45" r="7.21"/><circle class="cls-3" cx="976.39" cy="695.06" r="7.21"/><circle class="cls-3" cx="1257.79" cy="478" r="7.21"/><circle class="cls-3" cx="1245.35" cy="296.25" r="7.21"/><circle class="cls-3" cx="1423.79" cy="179" r="7.21"/><polygon class="cls-4" points="1600 1521.09 1565.82 1483.92 1440.76 1288.13 1244.25 1192.6 1041 944.06 968.3 914.39 897.74 921.24 730.96 1082.07 626.2 1250.79 571.52 1348.53 448.89 1232.74 379.43 1210.85 312.02 1215.9 152.67 1334.56 52.56 1459.03 0 1531.59 0 1600 1600 1600 1600 1521.09"/><path class="cls-1" d="M1128.76,1569.93c-1.38-1.88-2.94-3.54-4.19-5.12a22.06,22.06,0,0,1-5-9.26,22.93,22.93,0,0,1-.43-9.95,16.19,16.19,0,0,1,1.76-4.77,42.3,42.3,0,0,1,3.44-4.82,50,50,0,0,0,3.92-5.42,21.14,21.14,0,0,0,2.37-5.83,26.14,26.14,0,0,0,0-11.54,15.83,15.83,0,0,0-.89-2.88,20.59,20.59,0,0,0-1.33-2.86,30.82,30.82,0,0,0-4-5.45c-1.53-1.72-3.15-3.34-4.5-4.92a23.32,23.32,0,0,1-3.26-4.84,19.4,19.4,0,0,1-1.78-5.12A3.88,3.88,0,0,0,1111,1484h0a3.85,3.85,0,0,0-3.82,4.23,19.78,19.78,0,0,0,1.06,4.91,23.32,23.32,0,0,0,3,5.59c1.27,1.8,2.7,3.49,3.91,5.14a18.87,18.87,0,0,1,4.16,9.86,23.61,23.61,0,0,1-1,10.16,19.07,19.07,0,0,1-2.46,4.77,51.24,51.24,0,0,1-4,4.73,53.83,53.83,0,0,0-4.51,5.32,24.4,24.4,0,0,0-3.08,5.83,27.26,27.26,0,0,0-1.43,11.75,15.44,15.44,0,0,0,.58,3,17.34,17.34,0,0,0,1.07,3,27.7,27.7,0,0,0,3.72,5.77c3,3.62,5.79,6.38,7.22,9.47a23.1,23.1,0,0,1,2.36,9.81,18.39,18.39,0,0,1-2.08,9.83c-.45.91-1,1.85-1.64,2.82h12.19c.27-.29.54-.57.8-.86a22.93,22.93,0,0,0,5.75-11.48,22.22,22.22,0,0,0-.73-11.83A25.09,25.09,0,0,0,1128.76,1569.93Z"/><path class="cls-1" d="M1098.2,1569.93c-1.38-1.88-2.94-3.54-4.19-5.12a22.06,22.06,0,0,1-5-9.26,22.93,22.93,0,0,1-.43-9.95,16.19,16.19,0,0,1,1.76-4.77,42.33,42.33,0,0,1,3.44-4.82,50,50,0,0,0,3.92-5.42,21.14,21.14,0,0,0,2.37-5.83,26.14,26.14,0,0,0,0-11.54,15.83,15.83,0,0,0-.89-2.88,20.61,20.61,0,0,0-1.33-2.86,30.82,30.82,0,0,0-4-5.45c-1.53-1.72-3.15-3.34-4.5-4.92a23.32,23.32,0,0,1-3.26-4.84,19.4,19.4,0,0,1-1.78-5.12,3.88,3.88,0,0,0-3.77-3.16h0a3.85,3.85,0,0,0-3.82,4.23,19.78,19.78,0,0,0,1.06,4.91,23.32,23.32,0,0,0,3,5.59c1.27,1.8,2.7,3.49,3.91,5.14a18.87,18.87,0,0,1,4.16,9.86,23.61,23.61,0,0,1-1,10.16,19.07,19.07,0,0,1-2.46,4.77,51.26,51.26,0,0,1-4,4.73,53.8,53.8,0,0,0-4.51,5.32,24.4,24.4,0,0,0-3.08,5.83,27.26,27.26,0,0,0-1.43,11.75,15.45,15.45,0,0,0,.58,3,17.35,17.35,0,0,0,1.07,3,27.7,27.7,0,0,0,3.72,5.77c3,3.62,5.79,6.38,7.22,9.47a23.1,23.1,0,0,1,2.36,9.81,18.39,18.39,0,0,1-2.08,9.83c-.45.91-1,1.85-1.64,2.82h12.19c.27-.29.54-.57.8-.86a22.93,22.93,0,0,0,5.75-11.48,22.22,22.22,0,0,0-.73-11.83A25.09,25.09,0,0,0,1098.2,1569.93Z"/><path class="cls-1" d="M1067.64,1569.93c-1.38-1.88-2.94-3.54-4.19-5.12a22.06,22.06,0,0,1-5-9.26,22.93,22.93,0,0,1-.43-9.95,16.19,16.19,0,0,1,1.76-4.77,42.3,42.3,0,0,1,3.44-4.82,50.05,50.05,0,0,0,3.92-5.42,21.13,21.13,0,0,0,2.37-5.83,26.14,26.14,0,0,0,0-11.54,15.83,15.83,0,0,0-.89-2.88,20.62,20.62,0,0,0-1.33-2.86,30.82,30.82,0,0,0-4-5.45c-1.53-1.72-3.15-3.34-4.5-4.92a23.32,23.32,0,0,1-3.26-4.84,19.4,19.4,0,0,1-1.78-5.12,3.88,3.88,0,0,0-3.77-3.16h0a3.85,3.85,0,0,0-3.82,4.23,19.78,19.78,0,0,0,1.06,4.91,23.32,23.32,0,0,0,3,5.59c1.27,1.8,2.7,3.49,3.91,5.14a18.87,18.87,0,0,1,4.16,9.86,23.61,23.61,0,0,1-1,10.16,19.08,19.08,0,0,1-2.46,4.77,51.23,51.23,0,0,1-4,4.73,53.82,53.82,0,0,0-4.51,5.32,24.4,24.4,0,0,0-3.08,5.83,27.26,27.26,0,0,0-1.43,11.75,15.46,15.46,0,0,0,.58,3,17.35,17.35,0,0,0,1.07,3,27.7,27.7,0,0,0,3.72,5.77c3,3.62,5.79,6.38,7.22,9.47a23.1,23.1,0,0,1,2.36,9.81,18.39,18.39,0,0,1-2.08,9.83c-.45.91-1,1.85-1.64,2.82h12.19c.27-.29.54-.57.8-.86a22.93,22.93,0,0,0,5.75-11.48,22.22,22.22,0,0,0-.73-11.83A25.09,25.09,0,0,0,1067.64,1569.93Z"/><path class="cls-1" d="M1037.09,1569.93c-1.38-1.88-2.94-3.54-4.19-5.12a22.06,22.06,0,0,1-5-9.26,22.93,22.93,0,0,1-.43-9.95,16.19,16.19,0,0,1,1.76-4.77,42.31,42.31,0,0,1,3.44-4.82,50,50,0,0,0,3.92-5.42,21.13,21.13,0,0,0,2.37-5.83,26.14,26.14,0,0,0,0-11.54,15.84,15.84,0,0,0-.89-2.88,20.6,20.6,0,0,0-1.33-2.86,30.82,30.82,0,0,0-4-5.45c-1.53-1.72-3.15-3.34-4.5-4.92a23.33,23.33,0,0,1-3.26-4.84,19.4,19.4,0,0,1-1.78-5.12,3.88,3.88,0,0,0-3.77-3.16h0a3.85,3.85,0,0,0-3.82,4.23,19.78,19.78,0,0,0,1.06,4.91,23.32,23.32,0,0,0,3,5.59c1.27,1.8,2.7,3.49,3.91,5.14a18.87,18.87,0,0,1,4.16,9.86,23.61,23.61,0,0,1-1,10.16,19.08,19.08,0,0,1-2.46,4.77,51.24,51.24,0,0,1-4,4.73,53.81,53.81,0,0,0-4.51,5.32,24.4,24.4,0,0,0-3.08,5.83,27.26,27.26,0,0,0-1.43,11.75,15.45,15.45,0,0,0,.58,3,17.35,17.35,0,0,0,1.06,3,27.71,27.71,0,0,0,3.72,5.77c3,3.62,5.79,6.38,7.22,9.47a23.1,23.1,0,0,1,2.36,9.81,18.39,18.39,0,0,1-2.08,9.83c-.45.91-1,1.85-1.64,2.82h12.19c.27-.29.54-.57.8-.86a22.93,22.93,0,0,0,5.75-11.48,22.22,22.22,0,0,0-.73-11.83A25.09,25.09,0,0,0,1037.09,1569.93Z"/><path class="cls-1" d="M1006.53,1569.93c-1.38-1.88-2.94-3.54-4.19-5.12a22.06,22.06,0,0,1-5-9.26,22.93,22.93,0,0,1-.43-9.95,16.19,16.19,0,0,1,1.76-4.77,42.3,42.3,0,0,1,3.44-4.82,50,50,0,0,0,3.92-5.42,21.14,21.14,0,0,0,2.37-5.83,26.14,26.14,0,0,0,0-11.54,15.83,15.83,0,0,0-.89-2.88,20.61,20.61,0,0,0-1.33-2.86,30.82,30.82,0,0,0-4-5.45c-1.53-1.72-3.15-3.34-4.5-4.92a23.32,23.32,0,0,1-3.26-4.84,19.4,19.4,0,0,1-1.78-5.12,3.88,3.88,0,0,0-3.77-3.16h0a3.85,3.85,0,0,0-3.82,4.23,19.78,19.78,0,0,0,1.06,4.91,23.32,23.32,0,0,0,3,5.59c1.27,1.8,2.7,3.49,3.91,5.14a18.87,18.87,0,0,1,4.16,9.86,23.61,23.61,0,0,1-1,10.16,19.07,19.07,0,0,1-2.46,4.77,51.26,51.26,0,0,1-4,4.73,53.82,53.82,0,0,0-4.51,5.32,24.4,24.4,0,0,0-3.08,5.83,27.26,27.26,0,0,0-1.43,11.75,15.45,15.45,0,0,0,.58,3,17.35,17.35,0,0,0,1.07,3,27.7,27.7,0,0,0,3.72,5.77c3,3.62,5.79,6.38,7.22,9.47a23.1,23.1,0,0,1,2.36,9.81,18.39,18.39,0,0,1-2.08,9.83c-.45.91-1,1.85-1.64,2.82h12.19c.27-.29.54-.57.8-.86a22.93,22.93,0,0,0,5.75-11.48,22.22,22.22,0,0,0-.73-11.83A25.09,25.09,0,0,0,1006.53,1569.93Z"/><path class="cls-1" d="M582.76,1569.93c-1.38-1.88-2.94-3.54-4.19-5.12a22.06,22.06,0,0,1-5-9.26,22.93,22.93,0,0,1-.43-9.95,16.19,16.19,0,0,1,1.76-4.77,42.3,42.3,0,0,1,3.44-4.82,50,50,0,0,0,3.92-5.42,21.14,21.14,0,0,0,2.37-5.83,26.14,26.14,0,0,0,0-11.54,15.83,15.83,0,0,0-.89-2.88,20.59,20.59,0,0,0-1.33-2.86,30.82,30.82,0,0,0-4-5.45c-1.53-1.72-3.15-3.34-4.5-4.92a23.32,23.32,0,0,1-3.26-4.84,19.4,19.4,0,0,1-1.78-5.12A3.88,3.88,0,0,0,565,1484h0a3.85,3.85,0,0,0-3.82,4.23,19.78,19.78,0,0,0,1.06,4.91,23.32,23.32,0,0,0,3,5.59c1.27,1.8,2.7,3.49,3.91,5.14a18.87,18.87,0,0,1,4.16,9.86,23.61,23.61,0,0,1-1,10.16,19.07,19.07,0,0,1-2.46,4.77,51.24,51.24,0,0,1-4,4.73,53.83,53.83,0,0,0-4.51,5.32,24.4,24.4,0,0,0-3.08,5.83,27.26,27.26,0,0,0-1.43,11.75,15.44,15.44,0,0,0,.58,3,17.34,17.34,0,0,0,1.07,3,27.7,27.7,0,0,0,3.72,5.77c3,3.62,5.79,6.38,7.22,9.47a23.1,23.1,0,0,1,2.36,9.81,18.39,18.39,0,0,1-2.08,9.83c-.45.91-1,1.85-1.64,2.82h12.19c.27-.29.54-.57.8-.86a22.93,22.93,0,0,0,5.75-11.48,22.22,22.22,0,0,0-.73-11.83A25.09,25.09,0,0,0,582.76,1569.93Z"/><path class="cls-1" d="M552.2,1569.93c-1.38-1.88-2.94-3.54-4.19-5.12a22.06,22.06,0,0,1-5-9.26,22.93,22.93,0,0,1-.43-9.95,16.19,16.19,0,0,1,1.76-4.77,42.33,42.33,0,0,1,3.44-4.82,50,50,0,0,0,3.92-5.42,21.14,21.14,0,0,0,2.37-5.83,26.14,26.14,0,0,0,0-11.54,15.83,15.83,0,0,0-.89-2.88,20.61,20.61,0,0,0-1.33-2.86,30.82,30.82,0,0,0-4-5.45c-1.53-1.72-3.15-3.34-4.5-4.92a23.32,23.32,0,0,1-3.26-4.84,19.4,19.4,0,0,1-1.78-5.12,3.88,3.88,0,0,0-3.77-3.16h0a3.85,3.85,0,0,0-3.82,4.23,19.78,19.78,0,0,0,1.06,4.91,23.32,23.32,0,0,0,3,5.59c1.27,1.8,2.7,3.49,3.91,5.14a18.87,18.87,0,0,1,4.16,9.86,23.61,23.61,0,0,1-1,10.16,19.07,19.07,0,0,1-2.46,4.77,51.26,51.26,0,0,1-4,4.73,53.8,53.8,0,0,0-4.51,5.32,24.4,24.4,0,0,0-3.08,5.83,27.26,27.26,0,0,0-1.43,11.75,15.45,15.45,0,0,0,.58,3,17.35,17.35,0,0,0,1.07,3,27.7,27.7,0,0,0,3.72,5.77c3,3.62,5.79,6.38,7.22,9.47a23.1,23.1,0,0,1,2.36,9.81,18.39,18.39,0,0,1-2.08,9.83c-.45.91-1,1.85-1.64,2.82h12.19c.27-.29.54-.57.8-.86a22.93,22.93,0,0,0,5.75-11.48,22.22,22.22,0,0,0-.73-11.83A25.09,25.09,0,0,0,552.2,1569.93Z"/><path class="cls-1" d="M521.64,1569.93c-1.38-1.88-2.94-3.54-4.19-5.12a22.06,22.06,0,0,1-5-9.26,22.93,22.93,0,0,1-.43-9.95,16.19,16.19,0,0,1,1.76-4.77,42.3,42.3,0,0,1,3.44-4.82,50.05,50.05,0,0,0,3.92-5.42,21.13,21.13,0,0,0,2.37-5.83,26.14,26.14,0,0,0,0-11.54,15.83,15.83,0,0,0-.89-2.88,20.62,20.62,0,0,0-1.33-2.86,30.82,30.82,0,0,0-4-5.45c-1.53-1.72-3.15-3.34-4.5-4.92a23.32,23.32,0,0,1-3.26-4.84,19.4,19.4,0,0,1-1.78-5.12,3.88,3.88,0,0,0-3.77-3.16h0a3.85,3.85,0,0,0-3.82,4.23,19.78,19.78,0,0,0,1.06,4.91,23.32,23.32,0,0,0,3,5.59c1.27,1.8,2.7,3.49,3.91,5.14a18.87,18.87,0,0,1,4.16,9.86,23.61,23.61,0,0,1-1,10.16,19.08,19.08,0,0,1-2.46,4.77,51.23,51.23,0,0,1-4,4.73,53.82,53.82,0,0,0-4.51,5.32,24.4,24.4,0,0,0-3.08,5.83,27.26,27.26,0,0,0-1.43,11.75,15.46,15.46,0,0,0,.58,3,17.35,17.35,0,0,0,1.07,3,27.7,27.7,0,0,0,3.72,5.77c3,3.62,5.79,6.38,7.22,9.47a23.1,23.1,0,0,1,2.36,9.81,18.39,18.39,0,0,1-2.08,9.83c-.45.91-1,1.85-1.64,2.82h12.19c.27-.29.54-.57.8-.86a22.93,22.93,0,0,0,5.75-11.48,22.22,22.22,0,0,0-.73-11.83A25.09,25.09,0,0,0,521.64,1569.93Z"/><path class="cls-1" d="M491.09,1569.93c-1.38-1.88-2.94-3.54-4.19-5.12a22.06,22.06,0,0,1-5-9.26,22.93,22.93,0,0,1-.43-9.95,16.19,16.19,0,0,1,1.76-4.77,42.31,42.31,0,0,1,3.44-4.82,50,50,0,0,0,3.92-5.42,21.13,21.13,0,0,0,2.37-5.83,26.14,26.14,0,0,0,0-11.54,15.84,15.84,0,0,0-.89-2.88,20.6,20.6,0,0,0-1.33-2.86,30.82,30.82,0,0,0-4-5.45c-1.53-1.72-3.15-3.34-4.5-4.92a23.33,23.33,0,0,1-3.26-4.84,19.4,19.4,0,0,1-1.78-5.12,3.88,3.88,0,0,0-3.77-3.16h0a3.85,3.85,0,0,0-3.82,4.23,19.78,19.78,0,0,0,1.06,4.91,23.32,23.32,0,0,0,3,5.59c1.27,1.8,2.7,3.49,3.91,5.14a18.87,18.87,0,0,1,4.16,9.86,23.61,23.61,0,0,1-1,10.16,19.08,19.08,0,0,1-2.46,4.77,51.24,51.24,0,0,1-4,4.73,53.81,53.81,0,0,0-4.51,5.32,24.4,24.4,0,0,0-3.08,5.83,27.26,27.26,0,0,0-1.43,11.75,15.45,15.45,0,0,0,.58,3,17.35,17.35,0,0,0,1.06,3,27.71,27.71,0,0,0,3.72,5.77c3,3.62,5.79,6.38,7.22,9.47a23.1,23.1,0,0,1,2.36,9.81,18.39,18.39,0,0,1-2.08,9.83c-.45.91-1,1.85-1.64,2.82h12.19c.27-.29.54-.57.8-.86a22.93,22.93,0,0,0,5.75-11.48,22.22,22.22,0,0,0-.73-11.83A25.09,25.09,0,0,0,491.09,1569.93Z"/><path class="cls-1" d="M460.53,1569.93c-1.38-1.88-2.94-3.54-4.19-5.12a22.06,22.06,0,0,1-5-9.26,22.93,22.93,0,0,1-.43-9.95,16.19,16.19,0,0,1,1.76-4.77,42.3,42.3,0,0,1,3.44-4.82,50,50,0,0,0,3.92-5.42,21.14,21.14,0,0,0,2.37-5.83,26.14,26.14,0,0,0,0-11.54,15.83,15.83,0,0,0-.89-2.88,20.61,20.61,0,0,0-1.33-2.86,30.82,30.82,0,0,0-4-5.45c-1.53-1.72-3.15-3.34-4.5-4.92a23.32,23.32,0,0,1-3.26-4.84,19.4,19.4,0,0,1-1.78-5.12,3.88,3.88,0,0,0-3.77-3.16h0a3.85,3.85,0,0,0-3.82,4.23,19.78,19.78,0,0,0,1.06,4.91,23.32,23.32,0,0,0,3,5.59c1.27,1.8,2.7,3.49,3.91,5.14a18.87,18.87,0,0,1,4.16,9.86,23.61,23.61,0,0,1-1,10.16,19.07,19.07,0,0,1-2.46,4.77,51.26,51.26,0,0,1-4,4.73,53.82,53.82,0,0,0-4.51,5.32,24.4,24.4,0,0,0-3.08,5.83,27.26,27.26,0,0,0-1.43,11.75,15.45,15.45,0,0,0,.58,3,17.35,17.35,0,0,0,1.07,3,27.7,27.7,0,0,0,3.72,5.77c3,3.62,5.79,6.38,7.22,9.47a23.1,23.1,0,0,1,2.36,9.81,18.39,18.39,0,0,1-2.08,9.83c-.45.91-1,1.85-1.64,2.82h12.19c.27-.29.54-.57.8-.86a22.93,22.93,0,0,0,5.75-11.48,22.22,22.22,0,0,0-.73-11.83A25.09,25.09,0,0,0,460.53,1569.93Z"/><path class="cls-2" d="M1565.84,1502.54h0c0-.16-.07-.32-.1-.48-.12-.65-.25-1.29-.39-1.94s-.31-1.44-.48-2.16-.29-1.21-.45-1.81c-.22-.83-.46-1.66-.7-2.5-.14-.48-.28-1-.43-1.45-.42-1.33-.87-2.65-1.36-4q-.65-1.72-1.38-3.42l-.3-.71-13.38-30.39,9.91-4.36-3.35-7.6L1443.91,1490l-23.7-53.84h0l-2.88-6.55,13.34-5.87-3.35-7.6L1195.88,1518l-15.12-34.35,5-2.21-5.5-12.5-47.23,20.79,1.79,4.06,3.71,8.44,5-2.21,15.12,34.35-48.91,21.53,3.35,7.6,13.33-5.87,18.65,42.36h350l24.34-10.71a79.54,79.54,0,0,0,44.9-52.35l.15-.6q.46-1.78.85-3.59c.07-.33.14-.66.21-1,.28-1.41.54-2.82.74-4.25s.37-2.83.5-4.25A79.27,79.27,0,0,0,1565.84,1502.54Zm-368,70.43a9.81,9.81,0,1,1,5-12.93A9.81,9.81,0,0,1,1197.88,1573Zm60.84-26.78a9.81,9.81,0,1,1,5-12.93A9.81,9.81,0,0,1,1258.72,1546.19Zm60.84-26.78a9.81,9.81,0,1,1,5-12.93A9.81,9.81,0,0,1,1319.56,1519.4Zm60.84-26.78a9.81,9.81,0,1,1,5-12.93A9.81,9.81,0,0,1,1380.4,1492.62Z"/><circle class="cls-5" cx="625.01" cy="799.21" r="222.26"/><circle class="cls-5" cx="625.01" cy="799.21" r="299.95"/><circle class="cls-5" cx="625.01" cy="799.21" r="153.42"/><circle class="cls-5" cx="625.01" cy="799.21" r="86.82"/><path class="cls-6" d="M813.83,795.55l-22.39-33.08-2.8-4.13-1.4-2.07-.7-1-.41-.58-.45-.62-.9-1.24-.89-1.16c-.59-.78-1.21-1.52-1.83-2.27-1.24-1.5-2.55-2.93-3.88-4.33A80.64,80.64,0,0,0,760,730.92a79.25,79.25,0,0,0-32.37-10c-1.88-.14-3.75-.24-5.62-.26-.94,0-1.87,0-2.81,0l-1.4,0-1.34.08a127,127,0,0,0-41.22,9.31,125.16,125.16,0,0,0-35.33,22q-3.88,3.44-7.46,7.17l-1.76,1.89c-.57.64-1,1.34-1.53,2l-3,4.06-1.19,1.62h0a29.46,29.46,0,0,1,7.68,1l1.81-1.33c.66-.5,1.38-1,2-1.51l1.8-1.59q3.65-3.14,7.53-6a113.77,113.77,0,0,1,33.88-16.85,111.78,111.78,0,0,1,36.91-4.69l1.16,0,1.09.08c.73,0,1.45.12,2.17.2,1.44.15,2.88.37,4.3.62A60.36,60.36,0,0,1,733.7,741a58.85,58.85,0,0,1,27.38,19.19c.85,1.1,1.68,2.21,2.46,3.36.39.58.78,1.14,1.13,1.74l.55.88.48.83.24.41c.08.13.16.27.27.47l.6,1.09,1.19,2.19,2.39,4.38,19.08,35,28.83,52.93a259.16,259.16,0,0,1,33.86-11.36Z"/><path class="cls-7" d="M696.82,1220.83l41.28,1.45a317.63,317.63,0,0,1,14.37-169.95A338.47,338.47,0,0,0,696.82,1220.83Z"/><path class="cls-7" d="M794.71,1093.51a260.94,260.94,0,0,0-43.78,129.22l33.76,1.18A243.84,243.84,0,0,1,794.71,1093.51Z"/><path class="cls-7" d="M825.36,1150.63a154.53,154.53,0,0,0-29.57,73.67l27.66,1A140.25,140.25,0,0,1,825.36,1150.63Z"/><path class="cls-7" d="M855.45,1175.62a107.63,107.63,0,0,0-22.38,50l23.15.81A95.49,95.49,0,0,1,855.45,1175.62Z"/><path class="cls-7" d="M883.52,1187.17a98.22,98.22,0,0,0-18.67,39.56l17.14.6A88.88,88.88,0,0,1,883.52,1187.17Z"/><path class="cls-7" d="M907.84,1196.34a90.31,90.31,0,0,0-15.52,31.35l12.84.45A83,83,0,0,1,907.84,1196.34Z"/><path class="cls-7" d="M916.7,1228.54l9.22.32A77.92,77.92,0,0,1,929.1,1205,83.46,83.46,0,0,0,916.7,1228.54Z"/><path class="cls-7" d="M944.78,1229.53a73.37,73.37,0,0,1,3.08-17.17,77.53,77.53,0,0,0-9.49,16.94Z"/><path class="cls-7" d="M859.4,1042.8,852,1030a106.11,106.11,0,0,0-17.27,31.8A97.36,97.36,0,0,1,859.4,1042.8Z"/><path class="cls-7" d="M800.88,942l-19.5-33.58a338.11,338.11,0,0,0-105.95,132.36A318.17,318.17,0,0,1,800.88,942Z"/><path class="cls-7" d="M824,981.87l-15.2-26.19a260.38,260.38,0,0,0-76,98.74A244.6,244.6,0,0,1,824,981.87Z"/><path class="cls-7" d="M843.12,1014.75,832.22,996a153.51,153.51,0,0,0-34.74,53.75A141.58,141.58,0,0,1,843.12,1014.75Z"/><path class="cls-7" d="M873.35,1066.82l-5.74-9.89a97.1,97.1,0,0,0-14,26.08A90.13,90.13,0,0,1,873.35,1066.82Z"/><path class="cls-7" d="M885.55,1087.84l-4.4-7.58A89.44,89.44,0,0,0,870,1101.42,83.91,83.91,0,0,1,885.55,1087.84Z"/><path class="cls-7" d="M896.33,1106.4l-3.33-5.73a82.88,82.88,0,0,0-8.68,16.86A78.51,78.51,0,0,1,896.33,1106.4Z"/><path class="cls-7" d="M906.49,1123.91l-2.18-3.76a77,77,0,0,0-5.65,11.59A73.82,73.82,0,0,1,906.49,1123.91Z"/><path class="cls-7" d="M917.52,1142.89l-1.47-2.54a76.63,76.63,0,0,0-3.54,7.82Q914.9,1145.38,917.52,1142.89Z"/><path class="cls-7" d="M927.93,1160.83c-.56,1.25-1.1,2.51-1.59,3.78.75-.87,1.52-1.72,2.31-2.55Z"/><path class="cls-8" d="M1336.73,958.59a78.85,78.85,0,0,0-70.31-78.39L932,843.76v.37q-6.87-.36-13.84-.37a260,260,0,0,0-147.72,45.77l197.88,340.82-284.51-10c42.62,86.35,131.54,145.76,234.35,145.76,127.82,0,234.18-91.82,256.75-213.09a79,79,0,0,1,33-50.74l94.52-64.68a78.85,78.85,0,0,0,34.32-65.08Z"/><path class="cls-6" d="M1263.7,905.14,936.38,869.47l-5.71-.3c-4.21-.22-8.43-.33-12.53-.33A234.82,234.82,0,0,0,804.35,898S796,902.94,783,911.27l185.26,319.08-256.46-9c10.38,15.9,17.75,25.72,17.75,25.72a235.94,235.94,0,0,0,188.55,94c113.71,0,211.32-81,232.09-192.6a103.36,103.36,0,0,1,43.5-66.85l94.52-64.68a53.74,53.74,0,0,0,23.41-44.38v-14A53.69,53.69,0,0,0,1263.7,905.14Z"/><path class="cls-9" d="M1470.66,1035.7H1305.07c-.88.65-1.76,1.3-2.67,1.92l-29.51,20.19h197.76a11.05,11.05,0,0,0,0-22.11Z"/><path class="cls-10" d="M1470.66,1013.6H1325.2a78.79,78.79,0,0,1-20.13,22.11h165.59a11.05,11.05,0,1,0,0-22.11Z"/><path class="cls-9" d="M1470.66,991.49H1334.42a78.88,78.88,0,0,1-9.22,22.11h145.46a11.05,11.05,0,1,0,0-22.11Z"/><path class="cls-10" d="M1470.66,969.38H1336.73v3.17a78.81,78.81,0,0,1-2.31,18.94h136.24a11.05,11.05,0,1,0,0-22.11Z"/><path class="cls-9" d="M1470.66,947.27H1335.92a79.28,79.28,0,0,1,.81,11.32v10.79h133.93a11.05,11.05,0,1,0,0-22.11Z"/><path class="cls-10" d="M1470.66,925.16H1329.28a78.4,78.4,0,0,1,6.63,22.11h134.74a11.05,11.05,0,1,0,0-22.11Z"/><path class="cls-9" d="M1470.66,903.05H1313.84a79,79,0,0,1,15.44,22.11h141.38a11.05,11.05,0,1,0,0-22.11Z"/><path class="cls-10" d="M1470.66,880.95H1272.73v.22a78.6,78.6,0,0,1,41.11,21.89h156.82a11.05,11.05,0,1,0,0-22.11Z"/><path class="cls-10" d="M1470.66,880.95H1272.73v.22a78.6,78.6,0,0,1,41.11,21.89h156.82a11.05,11.05,0,1,0,0-22.11Z"/><path class="cls-10" d="M1057.76,857.46l72.8-72.8a11.05,11.05,0,0,0,0-15.63h0a11.05,11.05,0,0,0-15.63,0l-85.47,85.35Z"/><path class="cls-9" d="M1086,860.54l60.24-60.24a11.05,11.05,0,0,0-15.63-15.63l-72.8,72.8Z"/><path class="cls-10" d="M1114.15,863.61l47.68-47.68a11.05,11.05,0,1,0-15.63-15.63L1086,860.54Z"/><path class="cls-9" d="M1142.34,866.68l35.12-35.12a11.05,11.05,0,0,0,0-15.63h0a11.05,11.05,0,0,0-15.63,0l-47.68,47.68Z"/><path class="cls-10" d="M1170.54,869.75l22.56-22.56a11.05,11.05,0,0,0-15.63-15.63l-35.12,35.12Z"/><path class="cls-9" d="M1198.73,872.83l10-10a11.05,11.05,0,0,0-15.63-15.63l-22.56,22.56Z"/><path class="cls-10" d="M1226.31,875.83a11.06,11.06,0,0,0-1.95-13h0a11.05,11.05,0,0,0-15.63,0l-10,10Z"/><path class="cls-10" d="M1231.22,1028.65a11.05,11.05,0,0,0-11.05-11.05H1091.64a55.3,55.3,0,0,0-37.76,22.11h166.28A11.05,11.05,0,0,0,1231.22,1028.65Z"/><path class="cls-9" d="M1231.22,1050.76a11.05,11.05,0,0,0-11.05-11.05H1053.88a55.07,55.07,0,0,0-9.73,22.11h176A11.05,11.05,0,0,0,1231.22,1050.76Z"/><path class="cls-10" d="M1231.22,1072.87a11.05,11.05,0,0,0-11.05-11.05h-176c-.25,1.28-.45,2.58-.61,3.89v13.63c.19,1.55.43,3.08.75,4.59h175.87A11.05,11.05,0,0,0,1231.22,1072.87Z"/><path class="cls-9" d="M1231.22,1095a11.05,11.05,0,0,0-11.05-11.05H1044.29a55.1,55.1,0,0,0,10.13,22.11h165.75A11.05,11.05,0,0,0,1231.22,1095Z"/><path class="cls-10" d="M1231.22,1117.08a11.05,11.05,0,0,0-11.05-11.05H1054.41a55.25,55.25,0,0,0,44,21.84h124.11A11.05,11.05,0,0,0,1231.22,1117.08Z"/><path class="cls-11" d="M1098.46,1127.87a55.23,55.23,0,0,1-17.92-3,55.12,55.12,0,0,0,36.66,13.89H1179a78.85,78.85,0,0,1,5.26-10.92Z"/><path class="cls-12" d="M1098.46,1127.87a55.23,55.23,0,0,1-17.92-3,55.12,55.12,0,0,0,36.66,13.89h35.3a104.68,104.68,0,0,1,3.77-10.92Z"/><circle class="cls-13" cx="928.94" cy="1002.46" r="64"/><path class="cls-12" d="M981.45,965.89a64,64,0,0,1-81.67,93.54,64,64,0,1,0,81.67-93.54Z"/><circle class="cls-7" cx="928.94" cy="1002.46" r="51.03"/><path class="cls-13" d="M962.23,979.14a13.9,13.9,0,1,1-10-10,40.67,40.67,0,1,0,10,10Z"/><circle class="cls-10" cx="1211.76" cy="927.51" r="16.43"/><circle class="cls-10" cx="1151.65" cy="914.39" r="9.95"/><circle class="cls-10" cx="1105.38" cy="906.53" r="6.92"/><polygon class="cls-14" points="1035.74 848.11 1029.46 854.38 1057.76 857.47 1064.04 851.19 1035.74 848.11"/><path class="cls-14" d="M1272.73,881.17a78.6,78.6,0,0,1,41.11,21.89h9.43a85.61,85.61,0,0,0-28.89-22.11h-21.65Z"/><polygon class="cls-15" points="1064.04 851.19 1057.76 857.47 1085.96 860.54 1092.23 854.26 1064.04 851.19"/><polygon class="cls-14" points="1120.43 857.33 1092.23 854.26 1085.96 860.54 1114.15 863.61 1120.43 857.33"/><polygon class="cls-15" points="1120.43 857.33 1114.15 863.61 1142.34 866.68 1148.62 860.41 1120.43 857.33"/><polygon class="cls-14" points="1148.62 860.41 1142.34 866.68 1170.54 869.75 1176.81 863.48 1148.62 860.41"/><polygon class="cls-15" points="1205.01 866.55 1176.81 863.48 1170.54 869.75 1198.73 872.83 1205.01 866.55"/><path class="cls-14" d="M1227.47,869,1205,866.55l-6.28,6.28,27.58,3A11.07,11.07,0,0,0,1227.47,869Z"/><path class="cls-15" d="M1305.07,1035.7c-.88.65-1.76,1.3-2.67,1.92l-29.51,20.19h12.25l21.16-14.48a85.9,85.9,0,0,0,9.59-7.63Z"/><path class="cls-14" d="M1325.2,1013.6a78.79,78.79,0,0,1-20.13,22.11h10.83a85.69,85.69,0,0,0,17.28-22.11Z"/><path class="cls-15" d="M1334.42,991.49a78.88,78.88,0,0,1-9.22,22.11h8a85.71,85.71,0,0,0,8.34-22.11Z"/><path class="cls-14" d="M1336.73,969.38v3.17a78.81,78.81,0,0,1-2.31,18.94h7.11a85.8,85.8,0,0,0,2.12-18.94v-3.17Z"/><path class="cls-15" d="M1336.73,958.59v10.79h6.92V958.59a86.7,86.7,0,0,0-.75-11.32h-7A79.28,79.28,0,0,1,1336.73,958.59Z"/><path class="cls-14" d="M1336.89,925.16h-7.6a78.4,78.4,0,0,1,6.63,22.11h7A85.4,85.4,0,0,0,1336.89,925.16Z"/><path class="cls-15" d="M1329.28,925.16h7.6a85.63,85.63,0,0,0-13.62-22.11h-9.43A79,79,0,0,1,1329.28,925.16Z"/><path class="cls-12" d="M818.29,863.54a259.16,259.16,0,0,1,33.86-11.36L848,846.09A265.46,265.46,0,0,0,815,857.41Z"/><circle class="cls-7" cx="624.99" cy="798.29" r="29.43"/><path class="cls-8" d="M650.14,783a29.43,29.43,0,0,0-50.29,0,4.85,4.85,0,0,0,1.3,2.82c2.54,2.54,8.15,1.47,14.91-2.26,2.13,7.42,5.35,12.14,8.94,12.14s6.81-4.72,8.94-12.14c6.76,3.74,12.37,4.81,14.91,2.26A4.85,4.85,0,0,0,650.14,783Z"/><path class="cls-2" d="M990.15,1586.7a20.54,20.54,0,0,0-9.85,2.44c-6.17-16.54-25.73-28.63-48.94-28.63-28.05,0-50.8,17.66-51,39.5h126.93C1007.26,1592.65,999.6,1586.7,990.15,1586.7Z"/><path class="cls-2" d="M814.82,1586.7c-9.45,0-17.11,5.95-17.16,13.3H832C831.92,1592.65,824.26,1586.7,814.82,1586.7Z"/><path class="cls-2" d="M587.2,1586.7c-9.45,0-17.11,5.95-17.16,13.3h34.33C604.3,1592.65,596.64,1586.7,587.2,1586.7Z"/><path class="cls-2" d="M440.68,1566c-24.12,0-43.67,15.18-43.82,34H484.5C484.35,1581.23,464.8,1566,440.68,1566Z"/></svg>